Encoded by Ratzz.








General

Complete name                    : Sherlock Holmes 2009 1080p Brrip x264 Ratzz.mp4

Format                           : MP4
File size                        : 1.80 GiB
Duration                         : 2h 8mn
Overall bit rate                 : 2 005 Kbps

Video

ID                               : 1
Format profile                   : High@L5.0
Format settings, ReFrames        : 3 frames
Duration                         : 2h 8mn
Bit rate mode                    : Variable
Bit rate                         : 1 907 Kbps
Maximum bit rate                 : 169 Mbps
Width                            : 1 920 pixels
Height                           : 1 080 pixels
Display aspect ratio             : 16:9
Frame rate mode                  : Constant
Frame rate                       : 23.976 fps
Color space                      : YUV
Chroma subsampling               : 4:2:0
Bit depth                        : 8 bits
Scan type                        : Progressive
Bits/(Pixel*Frame)               : 0.038
Stream size                      : 1.71 GiB (95%)
Title                            : Sherlock Holmes 2009 1080p Brrip x264 Ratzz

Audio
ID                               : 2
Format                           : AAC
Format/Info                      : Advanced Audio Codec
Format profile                   : LC
Codec ID                         : 40
Duration                         : 2h 8mn
Bit rate mode                    : Variable
Bit rate                         : 96.0 Kbps
Maximum bit rate                 : 102 Kbps
Channel(s)                       : 2 channels
Channel positions                : Front: L R
Sampling rate                    : 48.0 KHz
Compression mode                 : Lossy
Stream size                      : 88.1 MiB (5%)
Language                         : English





Subtitles                        : eng .srt file included.








Poster :
  
http://img716.imageshack.us/img716/7614/sherlockholmes20091080pd.jpg





Screens :

  
http://img834.imageshack.us/img834/3554/sherlockholmes20091080p.jpg
  
http://img252.imageshack.us/img252/3554/sherlockholmes20091080p.jpg
  
http://img832.imageshack.us/img832/3554/sherlockholmes20091080p.jpg







pls seed back after download and provide feedback.
thank you.